<svg width="24" height="24" viewBox="0 0 24 24" fill="none" xmlns="http://www.w3.org/2000/svg">
<path d="M11.6178 24C10.8433 24 10.0629 23.9119 9.27661 23.7357C8.49036 23.5595 7.6865 23.3069 6.86505 22.978C7.14669 20.135 7.96815 17.4801 9.32942 15.0131C10.6907 12.5461 12.4392 10.3728 14.575 8.49314C11.9933 9.80887 9.75775 11.5475 7.8684 13.7091C5.97904 15.8706 4.65884 18.3376 3.9078 21.1101C3.81391 21.0396 3.7259 20.9632 3.64376 20.881L3.37971 20.6167C2.27661 19.5124 1.43755 18.2789 0.862531 16.9162C0.28751 15.5535 0 14.132 0 12.6518C0 11.0541 0.316848 9.52693 0.950545 8.07022C1.58424 6.61352 2.46438 5.32128 3.59095 4.19351C5.49204 2.29039 7.95641 1.05102 10.9841 0.475383C14.0117 -0.100251 18.2598 -0.153115 23.7284 0.31679C24.1509 5.93215 24.0805 10.2142 23.5172 13.1628C22.9539 16.1115 21.7334 18.5256 19.8558 20.4052C18.7058 21.5565 17.4208 22.4434 16.0008 23.0661C14.5809 23.6887 13.1199 24 11.6178 24Z" fill="#50D75A"/>
</svg>
