<svg 
    width="109"
    height="46"
    viewBox="0 0 109 46"
    fill="none"
    xmlns="http://www.w3.org/2000/svg">

<!-- G -->
<path d="M15.0335 18.4815H25.9416C26.2325 18.4815 26.4837 18.6513 26.6953 18.9909C26.9068 19.3304 27.0126 19.7336 27.0126 20.2005V28.4771C27.0126 34.0797 25.7697 38.409 23.284 41.465C20.7983 44.4785 17.4795 45.9853 13.3278 45.9853C9.20254 45.9853 5.94992 44.521 3.56995 41.5923C1.18998 38.6212 0 34.1858 0 28.2861V17.5902C0 11.9451 1.21643 7.63707 3.64928 4.66598C6.08214 1.65245 9.32154 0.145689 13.3675 0.145689C17.4399 0.145689 20.7322 1.52512 23.2443 4.28399C25.7565 7.00041 27.0126 10.3535 27.0126 14.3432C27.0126 14.7252 26.9201 15.0648 26.735 15.3619C26.5763 15.6166 26.378 15.7439 26.14 15.7439H17.3738C16.8449 15.7439 16.4614 15.5104 16.2234 15.0436C15.6946 13.94 15.2979 13.3033 15.0335 13.1336C14.4252 12.7516 13.8699 12.5606 13.3675 12.5606C11.3313 12.5606 10.3132 14.1522 10.3132 17.3355V28.1588C10.3132 31.7665 11.3974 33.5704 13.5658 33.5704C15.7871 33.5704 16.8978 32.0424 16.8978 28.9864H15.0335C14.7426 28.9864 14.4914 28.8167 14.2798 28.4771C14.0682 28.1376 13.9625 27.7343 13.9625 27.2674V20.2005C13.9625 19.7336 14.0682 19.3304 14.2798 18.9909C14.4914 18.6513 14.7426 18.4815 15.0335 18.4815Z"
    fill="black"/>

<!-- A -->
<path d="M39.6075 0.145689H48.0772C49.0139 0.145689 49.5994 0.866025 49.8335 2.3067L58.5374 44.0862C58.5635 44.2172 58.5765 44.4355 58.5765 44.7411C58.5765 45.003 58.4854 45.2868 58.3032 45.5924C58.1471 45.8543 57.952 45.9853 57.7178 45.9853H50.4971C49.7165 45.9853 49.2091 45.4396 48.9749 44.3482L48.0381 40.0261H39.6465L38.7097 44.3482C38.4756 45.4396 37.9682 45.9853 37.1875 45.9853H29.9668C29.7326 45.9853 29.5245 45.8543 29.3423 45.5924C29.1862 45.2868 29.1082 45.003 29.1082 44.7411C29.1082 44.4355 29.1212 44.2172 29.1472 44.0862L37.8511 2.3067C38.0853 0.866025 38.6707 0.145689 39.6075 0.145689ZM41.6371 27.2565H46.0476L43.8228 15.0763L41.6371 27.2565Z"
    fill="black"/>

<!-- I -->
<path d="M73.736 45.6579H65.3219C65.0194 45.6579 64.7582 45.5518 64.5382 45.3398C64.3182 45.1277 64.2083 44.8759 64.2083 44.5844V18.9002C64.2083 18.6086 64.3182 18.3568 64.5382 18.1447C64.7582 17.9327 65.0194 17.8267 65.3219 17.8267H73.736C74.0384 17.8267 74.2996 17.9327 74.5196 18.1447C74.7396 18.3568 74.8496 18.6086 74.8496 18.9002V44.5844C74.8496 44.8759 74.7396 45.1277 74.5196 45.3398C74.2996 45.5518 74.0384 45.6579 73.736 45.6579Z"
    fill="black"/>

<!-- LEAF -->
<path d="M68.787 16.7789C68.246 16.7789 67.7009 16.7174 67.1517 16.5943C66.6025 16.4712 66.041 16.2948 65.4672 16.065C65.6639 14.0792 66.2377 12.2247 67.1886 10.5015C68.1394 8.77825 69.3608 7.26017 70.8526 5.94724C69.0493 6.86629 67.4877 8.08075 66.168 9.59062C64.8483 11.1005 63.9261 12.8237 63.4015 14.7603C63.3359 14.711 63.2744 14.6577 63.2171 14.6003L63.0326 14.4156C62.2621 13.6443 61.676 12.7827 61.2744 11.8308C60.8727 10.8789 60.6719 9.88603 60.6719 8.8521C60.6719 7.73611 60.8932 6.66935 61.3358 5.65183C61.7785 4.63431 62.3933 3.73167 63.1802 2.94392C64.5081 1.61458 66.2295 0.748862 68.3443 0.346778C70.4592 -0.055307 73.4265 -0.0922331 77.2464 0.235999C77.5415 4.15838 77.4923 7.14939 77.0988 9.20905C76.7054 11.2687 75.8529 12.955 74.5413 14.2679C73.738 15.0721 72.8404 15.6916 71.8486 16.1265C70.8567 16.5615 69.8362 16.7789 68.787 16.7789Z"
    fill="#50D75A"/>

<!-- A -->
<path d="M90.031 0.145689H98.5007C99.4375 0.145689 100.023 0.866025 100.257 2.3067L108.961 44.0862C108.987 44.2172 109 44.4355 109 44.7411C109 45.003 108.909 45.2868 108.727 45.5924C108.571 45.8543 108.376 45.9853 108.141 45.9853H100.921C100.14 45.9853 99.6326 45.4396 99.3984 44.3482L98.4617 40.0261H90.0701L89.1333 44.3482C88.8991 45.4396 88.3917 45.9853 87.6111 45.9853H80.3904C80.1562 45.9853 79.9481 45.8543 79.7659 45.5924C79.6098 45.2868 79.5317 45.003 79.5317 44.7411C79.5317 44.4355 79.5447 44.2172 79.5708 44.0862L88.2747 2.3067C88.5088 0.866025 89.0943 0.145689 90.031 0.145689ZM92.0606 27.2565H96.4711L94.2464 15.0763L92.0606 27.2565Z" 
    fill="black"/>
</svg>
